<?xml version="1.0" encoding="utf-8"?>
<!-- Generator: Adobe Illustrator 16.2.0, SVG Export Plug-In . SVG Version: 6.00 Build 0)  -->
<!DOCTYPE svg PUBLIC "-//W3C//DTD SVG 1.1//EN" "http://www.w3.org/Graphics/SVG/1.1/DTD/svg11.dtd">
<svg version="1.1" id="Layer_1" xmlns="http://www.w3.org/2000/svg" xmlns:xlink="http://www.w3.org/1999/xlink" x="0px" y="0px"
	 width="32px" height="45.922px" viewBox="0 0 32 45.922" enable-background="new 0 0 32 45.922" xml:space="preserve">
<g>
	<path fill="#FF3300" d="M26.174,17.582c-1.303-1.076-2.545-2.227-3.574-3.568C16.75,6.396,19.781,0,19.781,0
		C8.92,4.558,6.447,11.792,6.33,17.179l0.006,0.058c0,0,0.099,3.188,1.549,6.646c0.464,1.105-0.296,2.345-1.479,2.519
		c-0.824,0.117-1.624-0.32-1.973-1.076c-0.623-1.355-1.445-3.506-1.209-5.023c-1.789,2.371-2.948,5.273-3.182,8.498
		c-0.575,7.949,4.944,15.219,12.756,16.799c1.024,0.207,2.042,0.314,3.044,0.324c-4.631-0.07-8.64-3.518-9.278-8.246
		c-0.458-3.387,0.925-6.596,3.379-8.623c0.774-0.641,1.516-1.326,2.128-2.125c3.481-4.535,1.678-8.342,1.678-8.342
		c6.465,2.713,7.938,7.02,8.006,10.227l-0.002,0.035c0,0-0.06,1.898-0.922,3.957c-0.276,0.656,0.176,1.396,0.881,1.496
		c0.49,0.072,0.968-0.188,1.174-0.641c0.371-0.807,0.861-2.086,0.722-2.99c1.063,1.412,1.756,3.141,1.895,5.059
		c0.342,4.732-2.943,9.063-7.594,10.002c-0.629,0.127-1.256,0.189-1.871,0.191c7.876-0.006,14.732-5.832,15.818-13.854
		C32.623,26.378,30.297,20.988,26.174,17.582z"/>
	<path fill="#FFCC33" d="M6.561,37.675c0.733,5.42,5.895,9.156,11.343,8.056c4.65-0.939,7.938-5.271,7.594-10
		c-0.139-1.92-0.828-3.648-1.895-5.062c0.143,0.904-0.351,2.187-0.722,2.99c-0.207,0.451-0.682,0.713-1.174,0.641
		c-0.705-0.102-1.156-0.84-0.881-1.496c0.862-2.059,0.922-3.957,0.922-3.957l0.004-0.032c-0.069-3.207-1.543-7.517-8.008-10.229
		c0,0,1.805,3.809-1.678,8.342c-0.612,0.8-1.354,1.484-2.128,2.125C7.486,31.08,6.104,34.289,6.561,37.675z"/>
</g>
</svg>
