<?xml version="1.0" encoding="utf-8"?>
<!-- Generator: Adobe Illustrator 16.2.0, SVG Export Plug-In . SVG Version: 6.00 Build 0)  -->
<!DOCTYPE svg PUBLIC "-//W3C//DTD SVG 1.1//EN" "http://www.w3.org/Graphics/SVG/1.1/DTD/svg11.dtd">
<svg version="1.1" id="Layer_1" xmlns="http://www.w3.org/2000/svg" xmlns:xlink="http://www.w3.org/1999/xlink" x="0px" y="0px"
	 width="48px" height="48px" viewBox="0 0 48 48" enable-background="new 0 0 48 48" xml:space="preserve">
<g>
	<path fill="#FFFFFF" d="M38.25,35.635c0,0.85-0.415,1.615-1.244,2.295c-0.83,0.687-1.935,1.23-3.319,1.644
		c-1.386,0.408-2.899,0.718-4.554,0.931c-1.656,0.207-3.364,0.31-5.132,0.31c-1.767,0-3.475-0.105-5.129-0.312
		c-1.655-0.207-3.171-0.521-4.556-0.931c-1.385-0.412-2.491-0.958-3.32-1.644c-0.83-0.684-1.243-1.447-1.243-2.295
		c0-0.661,0.221-1.258,0.668-1.795c0.447-0.53,1.062-0.983,1.843-1.349c0.781-0.367,1.577-0.665,2.387-0.903
		c0.811-0.234,1.695-0.43,2.65-0.596c0.35-0.068,0.676,0.005,0.97,0.211c0.298,0.21,0.473,0.487,0.527,0.84
		c0.068,0.349-0.003,0.676-0.21,0.972c-0.208,0.298-0.488,0.472-0.84,0.525c-0.782,0.134-1.499,0.295-2.145,0.478
		c-0.647,0.182-1.164,0.355-1.549,0.516c-0.386,0.159-0.712,0.319-0.982,0.477c-0.27,0.156-0.455,0.287-0.557,0.391
		c-0.101,0.105-0.16,0.187-0.17,0.244c0.039,0.148,0.222,0.324,0.545,0.537c0.324,0.208,0.817,0.434,1.476,0.669
		c0.662,0.238,1.43,0.456,2.309,0.657c0.88,0.204,1.964,0.372,3.25,0.505c1.287,0.133,2.646,0.204,4.08,0.204
		c1.432,0,2.792-0.069,4.079-0.204c1.287-0.134,2.371-0.303,3.249-0.505c0.882-0.203,1.651-0.426,2.311-0.668
		c0.661-0.242,1.153-0.471,1.475-0.68c0.323-0.209,0.504-0.396,0.546-0.557c-0.018-0.056-0.067-0.128-0.172-0.223
		c-0.101-0.094-0.287-0.221-0.555-0.383c-0.273-0.159-0.6-0.316-0.983-0.475c-0.382-0.158-0.901-0.329-1.548-0.504
		c-0.649-0.178-1.361-0.338-2.145-0.478c-0.35-0.054-0.629-0.228-0.839-0.527c-0.208-0.299-0.278-0.621-0.208-0.97
		c0.054-0.351,0.229-0.631,0.526-0.842c0.3-0.204,0.621-0.279,0.973-0.209c0.957,0.164,1.843,0.359,2.649,0.598
		c0.807,0.236,1.604,0.534,2.389,0.901c0.789,0.367,1.398,0.815,1.842,1.35c0.444,0.53,0.666,1.131,0.67,1.79h-0.012v0.004H38.25z
		 M30.474,17.491v7.772c0,0.351-0.127,0.653-0.383,0.913c-0.254,0.257-0.56,0.386-0.911,0.381h-1.294v7.772
		c0,0.352-0.127,0.654-0.382,0.912c-0.254,0.26-0.562,0.388-0.911,0.381h-5.186c-0.35,0-0.654-0.125-0.911-0.381
		c-0.258-0.254-0.387-0.559-0.382-0.912v-7.768h-1.293c-0.35,0-0.654-0.129-0.913-0.384c-0.258-0.253-0.387-0.559-0.382-0.91v-7.776
		c0-0.716,0.255-1.326,0.76-1.832c0.505-0.505,1.117-0.761,1.832-0.761h7.773c0.716,0,1.325,0.256,1.832,0.761
		C30.222,16.168,30.474,16.778,30.474,17.491L30.474,17.491z M28.532,9.72c0,1.255-0.444,2.327-1.327,3.207
		c-0.882,0.883-1.95,1.323-3.205,1.327c-1.255,0-2.324-0.441-3.207-1.327c-0.883-0.886-1.327-1.956-1.327-3.207
		c0-1.25,0.442-2.323,1.327-3.208c0.882-0.887,1.951-1.327,3.206-1.327s2.324,0.444,3.206,1.327
		C28.087,7.396,28.532,8.465,28.532,9.72z"/>
</g>
</svg>
