<?xml version="1.0" standalone="no"?>
<!DOCTYPE svg PUBLIC "-//W3C//DTD SVG 20010904//EN"
 "http://www.w3.org/TR/2001/REC-SVG-20010904/DTD/svg10.dtd">
<svg version="1.0" xmlns="http://www.w3.org/2000/svg"
 width="700.000000pt" height="700.000000pt" viewBox="0 0 700.000000 700.000000"
 preserveAspectRatio="xMidYMid meet">
<metadata>
Created by potrace 1.11, written by Peter Selinger 2001-2013
</metadata>
<g transform="translate(0.000000,700.000000) scale(0.100000,-0.100000)"
fill="#000000" stroke="none">
<path d="M3417 6684 c-1 -1 -38 -5 -82 -9 -113 -9 -136 -11 -170 -18 -16 -4
-46 -9 -65 -12 -225 -37 -529 -162 -750 -310 -351 -234 -614 -558 -784 -965
-55 -133 -118 -392 -133 -543 -9 -101 -10 -337 -1 -435 7 -72 6 -73 -20 -83
-62 -24 -231 -113 -311 -165 -188 -123 -332 -251 -477 -424 -264 -317 -428
-713 -470 -1135 -7 -68 -6 -329 1 -385 3 -25 8 -65 11 -90 11 -94 46 -246 84
-362 177 -537 561 -975 1070 -1221 440 -212 947 -267 1395 -151 33 9 67 17 75
19 20 4 140 43 165 54 11 5 45 19 75 31 93 37 258 128 365 200 56 39 105 70
109 70 4 0 26 -15 49 -33 121 -97 372 -229 543 -286 289 -96 544 -128 849
-106 55 3 102 8 105 10 3 2 30 6 60 10 30 3 63 8 72 11 9 3 25 6 35 8 212 42
512 169 708 301 336 226 584 520 753 895 29 64 81 200 87 230 2 8 11 42 20 75
28 104 50 229 61 345 7 85 8 339 0 385 -3 17 -10 66 -16 110 -15 112 -61 292
-105 410 -140 375 -361 673 -698 941 -9 8 -57 40 -105 71 -48 31 -98 64 -112
73 -33 21 -238 120 -249 120 -5 0 -5 17 1 38 19 67 14 457 -7 562 -3 14 -8 41
-11 60 -55 306 -189 615 -377 864 -87 115 -92 121 -209 238 -344 345 -809 558
-1294 594 -78 6 -244 11 -247 8z"/>
</g>
</svg>
