<?xml version="1.0" encoding="utf-8"?>
<!-- Generator: Adobe Illustrator 16.2.0, SVG Export Plug-In . SVG Version: 6.00 Build 0)  -->
<!DOCTYPE svg PUBLIC "-//W3C//DTD SVG 1.1//EN" "http://www.w3.org/Graphics/SVG/1.1/DTD/svg11.dtd">
<svg version="1.1" id="Layer_1" xmlns="http://www.w3.org/2000/svg" xmlns:xlink="http://www.w3.org/1999/xlink" x="0px" y="0px"
	 width="48px" height="48px" viewBox="0 0 48 48" enable-background="new 0 0 48 48" xml:space="preserve">
<g>
	<path fill="#075689" d="M38.12,18.37c-0.699,5.119-4.114,9.372-8.747,11.259c0.087,0.638,0.133,1.286,0.133,1.946
		c0,4.575-2.154,8.646-5.506,11.253c2.414,1.881,5.449,3.001,8.748,3.001C40.62,45.829,47,39.446,47,31.575
		C47,25.604,43.328,20.491,38.12,18.37z"/>
	<path fill="#89B2DC" d="M18.494,31.575c0-0.66,0.046-1.309,0.133-1.946c-4.633-1.888-8.049-6.141-8.747-11.258
		C4.672,20.491,1,25.604,1,31.575c0,7.871,6.381,14.254,14.252,14.254c3.299,0,6.334-1.12,8.748-3.001
		C20.649,40.221,18.494,36.15,18.494,31.575z"/>
	<path fill="#437EB5" d="M29.506,31.575c0-0.66-0.046-1.309-0.133-1.946c-1.657,0.675-3.473,1.05-5.373,1.05
		c-1.901,0-3.716-0.375-5.373-1.05c-0.087,0.638-0.133,1.286-0.133,1.946c0,4.575,2.155,8.646,5.506,11.253
		C27.352,40.221,29.506,36.15,29.506,31.575z"/>
	<path fill="#BFD8EF" d="M24,20.321c2.414-1.88,5.449-3,8.748-3c1.9,0,3.714,0.373,5.372,1.048c0.087-0.635,0.133-1.285,0.133-1.945
		c0-7.872-6.381-14.253-14.253-14.253S9.747,8.553,9.747,16.424c0,0.661,0.046,1.31,0.133,1.946
		c1.657-0.676,3.472-1.049,5.372-1.049C18.551,17.322,21.586,18.441,24,20.321z"/>
	<path fill="#789CC5" d="M24,20.321c2.866,2.232,4.858,5.533,5.373,9.308c4.633-1.888,8.048-6.141,8.747-11.259
		c-1.658-0.675-3.472-1.048-5.372-1.048C29.449,17.322,26.414,18.441,24,20.321z"/>
	<path fill="#9CBFE4" d="M18.627,29.629c0.515-3.774,2.507-7.076,5.373-9.308c-2.414-1.88-5.449-3-8.748-3
		c-1.9,0-3.715,0.373-5.372,1.049C10.578,23.488,13.994,27.741,18.627,29.629z"/>
	<path fill="#85ADD7" d="M24,20.321c-2.866,2.232-4.858,5.533-5.373,9.308c1.657,0.675,3.472,1.05,5.373,1.05
		c1.9,0,3.716-0.375,5.373-1.05C28.858,25.854,26.866,22.553,24,20.321z"/>
</g>
</svg>
