<?xml version="1.0" encoding="utf-8"?>
<!-- Generator: Adobe Illustrator 16.2.0, SVG Export Plug-In . SVG Version: 6.00 Build 0)  -->
<!DOCTYPE svg PUBLIC "-//W3C//DTD SVG 1.1//EN" "http://www.w3.org/Graphics/SVG/1.1/DTD/svg11.dtd">
<svg version="1.1" id="Layer_1" xmlns="http://www.w3.org/2000/svg" xmlns:xlink="http://www.w3.org/1999/xlink" x="0px" y="0px"
	 width="34px" height="48px" viewBox="0 0 34 48" enable-background="new 0 0 34 48" xml:space="preserve">
<g>
	<path d="M24.258,32.259L17,39.514l-7.258-7.255c-5.305,1.33-8.946,4.074-8.946,7.243c0,4.476,7.253,8.102,16.204,8.102
		c8.949,0,16.204-3.626,16.204-8.102C33.204,36.333,29.563,33.589,24.258,32.259z"/>
	<path fill="#2774AE" d="M33.204,16.6c0-8.949-7.255-16.204-16.204-16.204C8.052,0.396,0.796,7.651,0.796,16.6
		c0,4.474,1.815,8.524,4.747,11.458l0,0L17,39.514l11.457-11.457l0,0C31.39,25.124,33.204,21.074,33.204,16.6z M24.963,16.6
		c0,4.398-3.564,7.962-7.963,7.962c-4.397,0-7.963-3.564-7.963-7.962S12.603,8.637,17,8.637C21.398,8.637,24.963,12.201,24.963,16.6
		z"/>
	<circle fill="#FFD100" cx="17" cy="16.599" r="7.963"/>
</g>
</svg>
