<?xml version="1.0" encoding="utf-8"?>
<!-- Generator: Adobe Illustrator 16.2.0, SVG Export Plug-In . SVG Version: 6.00 Build 0)  -->
<!DOCTYPE svg PUBLIC "-//W3C//DTD SVG 1.1//EN" "http://www.w3.org/Graphics/SVG/1.1/DTD/svg11.dtd">
<svg version="1.1" id="Layer_2" xmlns="http://www.w3.org/2000/svg" xmlns:xlink="http://www.w3.org/1999/xlink" x="0px" y="0px"
	 width="48px" height="48px" viewBox="0 0 48 48" enable-background="new 0 0 48 48" xml:space="preserve">
<g>
	<path fill="#EE3A39" d="M37.207,19.031c-1.115,4.777-4.756,8.586-9.438,9.938c0.23,0.994,0.354,2.029,0.354,3.094
		c0,3.82-1.581,7.273-4.123,9.738c2.439,2.367,5.77,3.822,9.438,3.822c7.49,0,13.563-6.07,13.563-13.561
		C47,25.881,42.863,20.664,37.207,19.031z"/>
	<path fill="#F7EC37" d="M27.77,28.969C26.572,29.314,25.307,29.5,24,29.5c-1.309,0-2.572-0.186-3.77-0.531
		c-4.683-1.352-8.323-5.158-9.438-9.938c-5.656,1.633-9.793,6.85-9.793,13.031c0,7.49,6.071,13.562,13.562,13.562
		c3.67,0,6.998-1.455,9.438-3.822c2.542-2.465,4.123-5.918,4.123-9.737C28.123,30.998,28,29.963,27.77,28.969z"/>
	<path fill="#6FBD44" d="M24,2.376c-7.49,0-13.563,6.07-13.563,13.562c0,1.063,0.123,2.1,0.354,3.094
		c1.114,4.779,4.756,8.586,9.438,9.938C21.427,29.314,22.691,29.5,24,29.5c1.307,0,2.571-0.186,3.77-0.531
		c4.683-1.352,8.322-5.16,9.438-9.938c0.23-0.994,0.354-2.029,0.354-3.094C37.563,8.447,31.489,2.376,24,2.376z"/>
</g>
</svg>
