<?xml version="1.0" encoding="utf-8"?>
<!-- Generator: Adobe Illustrator 16.2.0, SVG Export Plug-In . SVG Version: 6.00 Build 0)  -->
<!DOCTYPE svg PUBLIC "-//W3C//DTD SVG 1.1//EN" "http://www.w3.org/Graphics/SVG/1.1/DTD/svg11.dtd">
<svg version="1.1" id="layer" xmlns="http://www.w3.org/2000/svg" xmlns:xlink="http://www.w3.org/1999/xlink" x="0px" y="0px"
	 width="280px" height="124.364px" viewBox="0 0 280 124.364" enable-background="new 0 0 280 124.364" xml:space="preserve">
<g>
	<path fill="#F7D417" d="M4.151,68.806V6.622h31.024v61.529c0,15.967,8.052,23.629,20.382,23.629
		c12.465,0,20.506-7.271,20.506-22.709V6.75h31.025v61.403c0,35.579-20.378,51.411-51.925,51.411
		C23.886,119.421,4.151,103.46,4.151,68.806z"/>
	<path fill="#F7D417" d="M122.025,62.316v-0.262c0-32.322,24.663-57.504,58.147-57.504c22.593,0,37.125,9.481,46.996,22.978
		l-23.104,17.915c-6.361-7.79-13.635-12.982-24.15-12.982c-15.451,0-26.347,13.24-26.347,29.468v0.256
		c0,16.613,10.909,29.596,26.347,29.596c11.562,0,18.306-5.32,24.932-13.369l23.106,16.479
		c-10.392,14.407-24.539,24.925-48.815,24.925C147.465,119.564,122.025,95.415,122.025,62.316z"/>
	<path fill="#F7D417" d="M245.21,6.621h30.639v110.724H245.21V6.621z"/>
</g>
</svg>
