<?xml version="1.0" encoding="utf-8"?>
<!-- Generator: Adobe Illustrator 16.2.0, SVG Export Plug-In . SVG Version: 6.00 Build 0)  -->
<!DOCTYPE svg PUBLIC "-//W3C//DTD SVG 1.1//EN" "http://www.w3.org/Graphics/SVG/1.1/DTD/svg11.dtd">
<svg version="1.1" id="ucla-box-black" xmlns="http://www.w3.org/2000/svg" xmlns:xlink="http://www.w3.org/1999/xlink" x="0px"
	 y="0px" width="272.83px" height="127.963px" viewBox="0 0 272.83 127.963" enable-background="new 0 0 272.83 127.963"
	 xml:space="preserve">
<g>
	<rect fill="#336699" width="272.83" height="127.963"/>
	<path fill="#FFFFFF" d="M43.629,76.283c-0.172-2.146-0.215-4.306-0.139-6.448l3.083-34.865h11.422l-3.13,35.168
		c-0.675,7.575,2.272,13.045,9.912,13.045c7.773,0,11.881-5.526,12.556-12.289l3.241-35.949h11.419L88.83,70.479
		c-1.264,13.643-10.336,23.905-25.006,23.905c-11.43,0-18.792-7.392-20.202-18.067"/>
	<path fill="#FFFFFF" d="M94.615,64.473c1.514-16.749,12.778-30.636,32.301-30.636c5.322-0.071,10.544,1.443,15,4.349l-1.306,13.827
		c-4.5-5.92-9.85-6.882-14.786-6.882c-12.121,0-18.795,8.428-19.753,19.114c-0.917,10.392,4.445,18.843,16.211,18.843
		c5.133,0,10.604-1.511,16.271-7.176L137.3,90.108c-5.551,3.021-10.713,4.379-15.911,4.379
		C102.071,94.487,93.221,80.142,94.615,64.473"/>
	<path fill="#FFFFFF" d="M151.022,34.943h11.371l-4.15,47.37h16.316c1.153,0,5.041-0.067,6.065-0.121
		c-0.063,0.564-1.039,10.938-1.039,10.938h-33.729L151.022,34.943z"/>
	<path fill="#FFFFFF" d="M210.358,56.665c0.354-0.789,0.638-1.602,0.843-2.441h0.179c0.07,0.833,0.215,1.656,0.436,2.462
		c0.627,2.656,5.063,17.389,5.063,17.389h-14.403c0,0,7.711-17.023,7.86-17.433 M213.255,32.258h-0.758l-31.186,60.84h12.123
		l4.375-9.191h21.969l2.742,9.232h12.075L213.255,32.258z"/>
</g>
</svg>
