<?xml version="1.0" encoding="utf-8"?>
<!-- Generator: Adobe Illustrator 16.2.0, SVG Export Plug-In . SVG Version: 6.00 Build 0)  -->
<!DOCTYPE svg PUBLIC "-//W3C//DTD SVG 1.1//EN" "http://www.w3.org/Graphics/SVG/1.1/DTD/svg11.dtd">
<svg version="1.1" id="ucla-box-black" xmlns="http://www.w3.org/2000/svg" xmlns:xlink="http://www.w3.org/1999/xlink" x="0px"
	 y="0px" width="393.16px" height="128px" viewBox="0 0 393.16 128" enable-background="new 0 0 393.16 128" xml:space="preserve">
<g>
	<path fill="#FFFFFF" d="M4.78,89.956c-0.346-4.314-0.432-8.655-0.277-12.965L10.7,6.894h22.964L27.372,77.6
		c-1.357,15.23,4.569,26.229,19.929,26.229c15.627,0,23.888-11.111,25.245-24.708l6.516-72.278h22.959l-6.36,71.445
		c-2.541,27.43-20.78,48.063-50.274,48.063c-22.981,0-37.783-14.861-40.617-36.324"/>
	<path fill="#FFFFFF" d="M107.29,66.212c3.045-33.675,25.691-61.595,64.943-61.595c10.701-0.143,21.199,2.901,30.158,8.745
		l-2.625,27.799c-9.048-11.902-19.803-13.837-29.729-13.837c-24.369,0-37.787,16.944-39.715,38.43
		c-1.844,20.893,8.938,37.885,32.594,37.885c10.319,0,21.318-3.037,32.712-14.427l-2.52,28.542
		c-11.16,6.074-21.539,8.805-31.989,8.805C122.281,126.558,104.487,97.715,107.29,66.212"/>
	<path fill="#FFFFFF" d="M220.7,6.841h22.862l-8.345,95.241h32.805c2.318,0,10.136-0.136,12.195-0.244
		c-0.129,1.134-2.09,21.992-2.09,21.992h-67.813L220.7,6.841z"/>
	<path fill="#FFFFFF" d="M339.998,50.514c0.712-1.587,1.284-3.222,1.695-4.907h0.36c0.141,1.675,0.43,3.329,0.875,4.949
		c1.26,5.34,10.18,34.961,10.18,34.961h-28.961c0,0,15.506-34.225,15.806-35.049 M345.823,1.441h-1.523l-62.701,122.321h24.375
		l8.795-18.479h44.172l5.514,18.561h24.277L345.823,1.441z"/>
</g>
</svg>
