<?xml version="1.0" encoding="utf-8"?>
<!-- Generator: Adobe Illustrator 16.2.0, SVG Export Plug-In . SVG Version: 6.00 Build 0)  -->
<!DOCTYPE svg PUBLIC "-//W3C//DTD SVG 1.1//EN" "http://www.w3.org/Graphics/SVG/1.1/DTD/svg11.dtd">
<svg version="1.1"
	 id="svg2" xmlns:dc="http://purl.org/dc/elements/1.1/" xmlns:cc="http://creativecommons.org/ns#" xmlns:rdf="http://www.w3.org/1999/02/22-rdf-syntax-ns#" xmlns:svg="http://www.w3.org/2000/svg"
	 xmlns="http://www.w3.org/2000/svg" xmlns:xlink="http://www.w3.org/1999/xlink" x="0px" y="0px" width="364px" height="156px"
	 viewBox="0 0 364 156" enable-background="new 0 0 364 156" xml:space="preserve">
<polyline fill="#003660" points="364,156 0,156 0,0 364,0 364,156 "/>
<path fill="#FFFFFF" d="M283.625,84.743h11.443c1.227,0,2.553,0.098,3.976,0.291c1.421,0.192,2.747,0.552,3.976,1.065
	c1.229,0.519,2.246,1.273,3.06,2.275c0.808,1.003,1.212,2.313,1.212,3.93c0,1.486-0.307,2.75-0.921,3.779
	c-0.615,1.035-1.406,1.877-2.376,2.521c-0.975,0.646-2.057,1.104-3.249,1.356c-1.196,0.258-2.375,0.39-3.539,0.39H283.63
	L283.625,84.743L283.625,84.743z M283.625,57.3h10.279c1.164,0,2.354,0.114,3.588,0.34c1.229,0.229,2.326,0.6,3.298,1.116
	c0.97,0.519,1.76,1.244,2.374,2.181c0.615,0.938,0.922,2.117,0.922,3.539c0,1.359-0.275,2.522-0.824,3.492
	c-0.55,0.969-1.275,1.745-2.181,2.327c-0.907,0.582-1.925,1.002-3.056,1.261c-1.133,0.26-2.279,0.389-3.442,0.389h-10.958V57.3z
	 M268.498,113.155h28.122c3.038,0,6.092-0.321,9.163-0.97c3.064-0.646,5.833-1.713,8.291-3.199c2.456-1.487,4.461-3.442,6.013-5.866
	c1.552-2.427,2.326-5.446,2.326-9.067c0-2.195-0.355-4.267-1.066-6.205c-0.712-1.938-1.729-3.637-3.054-5.092
	c-1.326-1.455-2.91-2.648-4.752-3.589c-1.844-0.936-3.896-1.566-6.158-1.891v-0.193c3.561-1.1,6.416-2.924,8.583-5.479
	c2.164-2.554,3.247-5.771,3.247-9.649c0-3.748-0.743-6.755-2.229-9.019c-1.488-2.263-3.432-4.023-5.818-5.285
	c-2.395-1.262-5.091-2.101-8.098-2.521c-3.006-0.42-5.996-0.631-8.971-0.631h-25.604L268.498,113.155L268.498,113.155z"/>
<path fill="#FFFFFF" d="M230.029,72.204c-8.069-2.152-14.746-4.34-14.746-9.346c0-3.164,2.464-7.865,9.251-7.865
	c6.759,0,11.827,2.342,15.483,7.162l9.641-8.396c-6.119-9.54-17.292-10.972-23.422-10.972c-15.271,0-25.932,8.82-25.932,21.451
	c0,12.563,11.483,17.438,22.779,20.607c9.572,2.684,13.354,3.977,13.354,9.771c0,4.591-4.07,7.438-10.633,7.438
	c-10.49,0-16.271-6.953-17.947-9.354l-10.375,8.879c5.266,8.413,14.358,12.676,27.047,12.676c15.826,0,26.889-9.128,26.889-22.194
	C251.422,78.902,240.377,74.913,230.029,72.204z"/>
<path fill="#FFFFFF" d="M185.12,89.016h-12.528c-1.458,9.907-8.159,14.86-17.872,14.86c-12.821,0-20.3-9.324-20.3-24.962v-0.583
	c0-15.832,8.063-25.254,20.3-25.254c9.421,0,15.249,4.373,17.58,13.986h11.56V44.501h-10.394v7.703
	c-3.206-6.021-10.199-9.422-19.912-9.422c-19.135,0-32.732,14.668-32.732,35.453v0.776c0,21.369,12.238,35.259,33.996,35.259
	C171.329,114.27,183.081,105.818,185.12,89.016L185.12,89.016z"/>
<path fill="#FFFFFF" d="M103.292,86.361V53.932h6.929v-9.431h-27.33v9.431h7.602v31.373c0,14.24-5.003,18.668-14.915,18.668
	c-10.201,0-14.243-5.195-14.243-17.804V53.932h7.602v-9.431h-27.33v9.431h6.93v33.2c0,17.706,9.719,27.138,26.945,27.138
	C93.669,114.27,103.292,104.355,103.292,86.361L103.292,86.361z"/>
</svg>
