<?xml version="1.0" encoding="utf-8"?>
<!-- Generator: Adobe Illustrator 16.2.0, SVG Export Plug-In . SVG Version: 6.00 Build 0)  -->
<!DOCTYPE svg PUBLIC "-//W3C//DTD SVG 1.1//EN" "http://www.w3.org/Graphics/SVG/1.1/DTD/svg11.dtd">
<svg version="1.1" id="Layer_1" xmlns="http://www.w3.org/2000/svg" xmlns:xlink="http://www.w3.org/1999/xlink" x="0px" y="0px"
	 width="652.667px" height="130.667px" viewBox="0 0 652.667 130.667" enable-background="new 0 0 652.667 130.667"
	 xml:space="preserve">
<g>
	<g>
		<path fill="#FFFFFF" d="M81.392,67.166c0,19.023-2.77,33.531-31.676,33.531c-28.904,0-33.197-13.902-33.197-33.531V20.892
			c0-10.328-4.447-11.379-12.094-11.379V6.742h36.527v2.771c-7.488,0-12.072,0.961-12.072,11.379v46.273
			c0,14.174,3.332,28.057,21.396,28.057c20.117,0,23.201-11.535,23.201-28.057V20.892c0-10.328-4.582-11.379-12.049-11.379V6.742
			h32.059v2.771c-7.646,0-12.096,0.961-12.096,11.379V67.166z M158.226,96.898c-7.992,2.736-16.414,4.008-24.857,3.756
			c-27.787,0-41.133-21.125-41.133-50.723c0-25.709,8.338-44.598,38.004-44.598c9.045,0.096,18.037,1.404,26.734,3.889l1.252,21.818
			h-3.465c-1.811-7.779-7.354-20.299-24.592-20.299c-22.354,0-24.164,23.764-24.164,38.004c0,17.885,3.912,45.58,34.336,45.58
			c6.143,0.121,12.238-1.066,17.885-3.486V96.898z M232.847,26.726c-1.252-7.354-6.818-15.982-21.684-15.982
			c-9.301,0-17.504,5.99-17.504,15.156c0,12.361,16.541,16.385,28.635,23.473c10.979,6.395,18.332,12.094,18.332,25.307
			c0,17.637-15.291,25.975-34.314,25.975c-8.023-0.26-16.014-1.148-23.896-2.66l-0.982-19.582h3.486
			c1.096,7.355,7.646,15.984,22.512,15.984c12.229,0,20.119-7.914,20.119-17.504c0-15-23.07-19.605-35.99-29.463
			c-6.063-4.193-9.461-11.271-8.941-18.623c0-16.654,13.77-23.473,31.295-23.473c7.25-0.006,14.477,0.789,21.551,2.369l0.961,19.023
			H232.847L232.847,26.726z M297.408,99.38c-2.924,0.742-5.928,1.117-8.943,1.115c-7.176,0-9.275-3.711-9.275-8.939h-0.27
			c-3.824,5.908-10.52,9.318-17.549,8.939c-8.516,0-14.82-5.945-14.82-13.971c0-17.885,23.248-17.885,32.639-18.801v-4.672
			c0-8.674-0.135-17.883-10.508-17.883c-7.668,0-8.65,3.219-8.65,7.176c0.334,3.205-1.994,6.072-5.199,6.406
			c-0.203,0.02-0.408,0.029-0.613,0.029c-3.055,0.211-5.699-2.096-5.91-5.148c-0.01-0.141-0.014-0.277-0.014-0.416
			c0-8.047,11.982-12.117,20.5-12.117c16.943,0,20.119,8.16,20.119,19.65v30.715c0,4.338,1.477,5.813,5.32,5.813
			c1.125-0.045,2.24-0.209,3.33-0.492L297.408,99.38z M279.121,71.816c-5.813,0.135-21.639,1.23-21.639,12.742
			c0,6.416,4.201,10.752,8.404,10.752c8.049,0,13.234-7.801,13.234-16.207V71.816L279.121,71.816z M300.134,97.144
			c5.164,0,9.367-1.096,9.367-9.143V54.267c0-7.422-5.814-7.779-9.367-8.025v-2.145l19.023-2.975v16.387h0.246
			c1.723-4.471,7.287-16.318,19.516-16.318c13.123,0,14.354,7.154,14.354,18.666v28.168c0,8.047,4.201,9.143,9.365,9.143v2.234
			H334.16v-2.234c5.186,0,9.389-1.096,9.389-9.143V62.541c0-10.619,0-15.447-8.271-15.447c-7.287,0-16.186,13.973-16.186,25.709
			v15.201c0,8.047,4.18,9.143,9.389,9.143v2.236h-28.346V97.144z M376.789,96.474c7.512,0,12.094-0.984,12.094-11.379V20.892
			c0-10.418-4.471-11.379-12.094-11.379V6.742h32.525c23.049,0,47.504,4.984,47.504,46.387c0,41.4-25.686,46.141-47.504,46.141
			h-32.525V96.474z M401.222,82.099c0,10.148,1.117,11.67,8.07,11.67c23.896,0,33.756-12.787,33.756-40.709
			c0-25.574-7.354-40.977-33.756-40.977c-6.953,0-8.07,0.828-8.07,11.67V82.099z M461.871,97.144c5.209,0,9.412-1.096,9.412-9.143
			V54.267c0-7.422-5.68-7.779-9.412-8.025v-2.145l19.047-2.975v46.945c0,8.047,4.201,9.145,9.389,9.145v2.234h-28.436V97.144z
			 M468.687,22.748c0-3.891,3.154-7.041,7.043-7.041s7.041,3.15,7.041,7.041c0,3.889-3.152,7.041-7.041,7.041
			c-0.008,0-0.016,0-0.021,0c-3.84,0.037-6.982-3.045-7.021-6.885C468.687,22.853,468.687,22.8,468.687,22.748z M535.037,98.261
			c-4.717,1.672-9.707,2.432-14.709,2.234c-19.158,0-29.889-10.506-29.889-31.297c0-18.039,7.289-28.055,25.082-28.055
			c11.178,0,21.127,6.17,21.127,20.521v2.705h-35.971c0,10.395,5.074,31.52,25.707,31.52c2.969,0.1,5.92-0.449,8.652-1.609V98.261
			L535.037,98.261z M525.648,60.259c0-6.551-2.234-15.09-11.736-15.09c-9.5,0-13.232,10.506-13.232,15.09H525.648z M576.818,89.365
			c5.924,0,19.648,0.246,19.648,13.973c0,14.084-13.836,21.996-30.289,21.996c-12.117,0-24.592-4.582-24.592-15.648
			c0-7.666,5.68-10.998,9.635-12.988c-3.313-1.65-5.381-5.061-5.32-8.762c0-4.584,3.957-9.277,5.32-10.775
			c-2.838-2.234-7.176-6.035-7.176-16.543c0-15.938,11.625-19.402,23.361-19.402c4.451-0.184,8.865,0.885,12.742,3.084
			c1.967-4.693,4.918-13.211,12.475-13.211c3.066-0.205,5.719,2.117,5.924,5.184c0.018,0.246,0.018,0.494,0,0.74
			c0.188,2.895-2.006,5.396-4.9,5.584c-0.297,0.02-0.594,0.014-0.891-0.018c-3.219,0-3.979-1.744-5.564-1.744
			c-2.729,0-3.822,3.6-4.471,5.566c3.732,4.023,5.725,9.357,5.543,14.844c0,12.475-7.779,19.516-22.602,19.516
			c-3.813,0.172-7.621-0.461-11.176-1.855c-1.365,1.543-2.154,3.51-2.236,5.566c0,4.939,6.193,4.939,10.148,4.939L576.818,89.365z
			 M555.47,98.15c-2.459,1.834-5.924,3.936-5.924,9.5c0,7.289,6.549,13.592,17.303,13.592c11.178,0,21.615-5.789,21.615-14.686
			c0-6.305-5.164-8.406-11.354-8.406H555.47L555.47,98.15z M566.222,76.644c10.396,0,11.76-8.158,11.76-14.709
			c0-9.277-3.221-16.699-12.141-16.699c-9.746,0-11.602,7.178-11.602,14.354c-0.045,9.389,3.041,17.057,11.938,17.057h0.045V76.644z
			"/>
		<path fill="#FFFFFF" d="M596.601,70.921c0-18.555,9.992-29.664,25.799-29.664c15.805,0,25.842,11.178,25.842,29.664
			s-10.061,29.574-25.842,29.574C606.617,100.496,596.601,89.365,596.601,70.921z M622.4,96.406
			c12.361,0,14.844-15.313,14.844-25.572c0-10.262-2.482-25.598-14.844-25.598c-12.363,0-14.822,15.336-14.822,25.598
			C607.578,81.093,610.058,96.406,622.4,96.406z"/>
	</g>
	<path fill="#FFFFFF" d="M535.664,120.55H4.919v3.15h533.717C537.533,122.763,536.537,121.705,535.664,120.55z M647.75,120.55
		h-48.822c-1.127,1.154-2.354,2.209-3.666,3.15h52.488V120.55z"/>
</g>
</svg>
