<?xml version="1.0" encoding="utf-8"?>
<!-- Generator: Adobe Illustrator 16.2.0, SVG Export Plug-In . SVG Version: 6.00 Build 0)  -->
<!DOCTYPE svg PUBLIC "-//W3C//DTD SVG 1.1//EN" "http://www.w3.org/Graphics/SVG/1.1/DTD/svg11.dtd">
<svg version="1.1" id="Layer_1" xmlns="http://www.w3.org/2000/svg" xmlns:xlink="http://www.w3.org/1999/xlink" x="0px" y="0px"
	 width="366.645px" height="176px" viewBox="-6.645 -1.595 366.645 176" enable-background="new -6.645 -1.595 366.645 176"
	 xml:space="preserve">
<g>
	<g>
		<g>
			<path fill="#052049" d="M357.998,75.422V53.737H275.51v79.903c-0.443-9.361-3.861-16.624-10.335-21.732
				c-4.476-3.531-11.196-6.354-20.163-8.463l-20.459-4.825c-7.896-1.845-13.058-3.452-15.488-4.824
				c-2.234-1.214-3.803-2.799-4.717-4.747l-0.002,0.003c-0.007-0.014-0.012-0.026-0.019-0.041V89.01
				c-0.608-1.332-0.957-2.886-0.957-4.556c0-3.572,1.228-6.611,3.765-8.999c0-0.003,0-0.007,0-0.007
				c0.055-0.054,0.112-0.104,0.168-0.154v-0.001c0.002-0.01,0.004-0.012,0.008-0.006c0.554-0.504,1.162-0.979,1.834-1.423
				c3.838-2.531,8.974-3.796,15.406-3.796c5.783,0,10.621,0.977,14.514,2.926c5.84,2.954,8.974,7.938,9.406,14.949h23.412
				c-0.429-12.392-5.031-21.842-13.813-28.355c-8.782-6.512-19.391-9.768-31.826-9.768c-14.893,0-26.184,3.454-33.87,10.361
				c-4.726,4.248-7.991,9.165-9.813,14.745h-0.008c-0.392,1.202-0.72,2.452-0.978,3.715h-0.002
				c-2.851,13.444-11.508,22.576-25.982,22.576c-23.176,0-31.881-19.718-31.881-39.273c0-20.536,8.705-40.249,31.881-40.249
				c12.81,0,23.988,8.869,25.629,20.534h24.979C203.075,15.119,181.385,0,155.592,0c-34.633,0-55.648,24.664-57.524,57.156V2.795
				H72.266V75.75c0,17.417-5.914,25.468-24.317,25.468c-20.869,0-24.155-12.651-24.155-25.468V2.795H-2.002V75.75
				c0,31.877,18.399,47.158,49.951,47.158c31.388,0,50.118-15.443,50.118-47.158v-9.146c1.876,31.644,22.891,56.306,57.524,56.306
				c14.23,0,26.365-4.59,35.314-12.768c0.555,0.445,1.124,0.881,1.724,1.292c4.641,3.217,13.162,6.195,25.567,8.938l12.622,2.77
				c7.388,1.582,12.783,3.4,16.188,5.457c3.4,2.108,5.102,5.09,5.102,8.938c0,6.593-3.471,11.101-10.416,13.525
				c-3.661,1.266-8.428,1.897-14.295,1.897c-9.799,0-16.717-2.398-20.756-7.198c-2.205-2.636-3.688-6.615-4.44-11.941h-23.253
				c0,12.129,4.396,21.659,13.189,28.592c8.795,6.935,20.865,10.401,36.215,10.401c15.029,0,26.66-3.521,34.896-10.561
				c7.573-6.474,11.653-14.479,12.263-24.01v32.818h25.799v-48.478h49.13v-20.046h-49.13V75.422H357.998z"/>
		</g>
	</g>
</g>
</svg>
